<?xml version="1.0" encoding="utf-8"?>
<!-- Generator: Adobe Illustrator 16.0.0, SVG Export Plug-In . SVG Version: 6.00 Build 0)  -->
<!DOCTYPE svg PUBLIC "-//W3C//DTD SVG 1.1//EN" "http://www.w3.org/Graphics/SVG/1.1/DTD/svg11.dtd">
<svg version="1.1" id="weixin" class="qrcode" xmlns="http://www.w3.org/2000/svg" xmlns:xlink="http://www.w3.org/1999/xlink" x="0px" y="0px" xml:space="preserve">
<path fill-rule="evenodd" clip-rule="evenodd"  d="M99.71,99.809c9.803,0,19.605,0,29.951,0
	c0-6.762,0-13.154,0-19.893c3.467,0,6.41,0,9.736,0c0-6.731,0-13.123,0-20.264c-3.16,0-6.424,0-9.688,0l0.139,0.148
	c0-3.38,0-6.761,0-10.141l-0.139,0.148c9.803,0,19.605,0,30.146,0c0-3.62,0-6.883,0-10.146l-0.148,0.139c6.592,0,13.184,0,20.141,0
	c0-7.199,0-13.67,0-20.141l-0.139,0.148c3.128,0,6.256,0,9.895,0c0,3.218,0,6.266,0,10c3.737,0,6.99,0,10.242,0l-0.139-0.148
	c0,3.266,0,6.531,0,10.307c-3.646,0-6.712,0-10.108,0c0,3.478,0,6.423,0,9.876c-3.413,0-6.476,0-9.745,0c0,3.673,0,6.813,0,9.955
	c-3.252,0-6.506,0-9.733,0c0,3.6,0,6.643,0,9.865c3.472,0,6.603,0,9.733,0c0,6.593,0,13.185,0,20.299c6.979,0,13.381,0,19.653,0
	c0,3.481,0,6.424,0,9.884c-3.323,0-6.386,0-9.8,0c0,3.672,0,6.813,0,9.955l0.141-0.141c-3.375,0.051-6.75,0.102-10.126,0.152
	c0-3.248,0-6.495,0-9.757c-3.583,0-6.62,0-9.591,0c0,3.374,0,6.413,0,9.616c3.48,0,6.605,0,9.732,0c0,3.265,0,6.529,0,10.3
	c-3.809,0-6.873,0-10.271,0c0,3.474,0,6.414,0,9.876c-6.741,0-13.132,0-19.739,0c0,7.011,0,13.48,0,19.95
	c-3.381,0.003-6.762,0.006-10.143,0.009c0-3.253,0-6.505,0-9.733c-3.602,0-6.645,0-9.867,0c0,3.473,0,6.604,0,9.733
	c-3.26,0-6.521,0-10.287,0c0-3.772,0-6.824,0-10c-16.971,0-33.408,0-49.846,0c0.045-3.382,0.091-6.764,0.137-10.146l-0.141,0.141
	c3.27,0,6.538,0,10.004,0c0-3.862,0-7.005,0-10.146c3.243,0,6.486,0,10.215,0c0-3.554,0-6.596,0-10.125c3.547,0,6.591,0,9.922,0
	c0-3.624,0-6.746,0-9.869L99.71,99.809z M159.837,89.816c-6.587,0-13.174,0-20.278,0c0,6.958,0,13.355,0,20.073
	c-3.472,0-6.411,0-9.876,0c0,3.398,0,6.455,0,10.028c-6.92,0-13.314,0-19.664,0c0,3.472,0,6.408,0,9.528c9.955,0,19.668,0,29.91,0
	c0-3.34,0-6.398,0-9.972c3.591,0,6.65,0,10.042,0c0-3.473,0-6.416,0-9.87c3.397,0,6.464,0,9.726,0c0-6.999,0-13.464,0-19.93
	c3.248,0,6.496,0,9.757,0c0-3.583,0-6.62,0-9.59c-3.374,0-6.413,0-9.616,0C159.837,83.564,159.837,86.69,159.837,89.816z
	 M159.421,69.526c0-3.481,0-6.527,0-9.393c-3.414,0-6.459,0-9.373,0c0,3.339,0,6.271,0,9.393
	C153.245,69.526,156.174,69.526,159.421,69.526z"/>
<path fill-rule="evenodd" clip-rule="evenodd"  d="M300.014,179.45c-3.146,0.146-6.294,0.293-9.839,0.459
	c0,6.344,0,12.727,0,19.653c6.231,0,12.621,0,19.3,0c0,3.578,0,6.626,0,10.028c-3.092,0-6.03,0-9.492,0c0,10.049,0,19.769,0,30.062
	c-3.755,0-7.014,0-10.272,0l0.139,0.148c0-9.924,0-19.847,0-29.994c-7.196,0-13.667,0-20.137,0
	c-0.006-6.711-0.011-13.421-0.016-20.132c3.254,0,6.508,0,9.757,0c0-10.27,0-19.964,0-29.567c-3.379,0-6.422,0-9.616,0
	c0,10.154,0,19.932,0,29.709c-10.042-0.003-20.084-0.007-30.125-0.01c0-3.252,0-6.504,0-10.251c-3.589,0-6.639,0-10,0
	c0-3.641,0-6.771,0-9.901c6.57,0,13.143,0,20.216,0c0-6.888,0-13.259,0-20.102c10.205,0,19.904,0,29.939,0c0-3.619,0-6.75,0-9.882
	l-0.143,0.144c6.593,0,13.187,0,20.124,0c0-3.872,0-7.013,0-10.154l-0.141,0.141c3.265,0,6.529,0,10.141,0
	c0-10.534,0-20.337,0-30.141l-0.141,0.141c3.254,0,6.507,0,9.729,0c0-3.735,0-6.779,0-10.141c-3.471,0-6.6,0-9.729,0l0.148,0.139
	c0-3.137,0-6.273,0-9.737c6.576,0,12.954,0,19.628,0c0,9.757,0,19.456,0,29.506c-3.086,0-6.02,0-9.469,0c0,10.038,0,19.751,0,29.988
	c-3.543,0-6.598,0-10.168,0c0,6.902,0,13.29,0,20.01c-3.447,0-6.382,0-9.968,0c0,6.897,0,13.469-0.006,20.045
	C299.868,179.616,300.014,179.45,300.014,179.45z"/>
<path fill-rule="evenodd" clip-rule="evenodd"  d="M59.692,229.789c0.055-3.376,0.109-6.751,0.164-10.127
	l-0.148,0.139c13.232,0,26.463,0,40.211,0c0-3.684,0-6.749,0-10.146c3.656,0,6.791,0,9.926,0c0,3.264,0,6.527,0,10.01
	c7.064,0,13.537,0,20.01,0c0,3.26,0,6.52,0,10.281c-7.124,0-13.52,0-20.236,0c0,3.474,0,6.418,0,9.474c-3.409,0-6.461,0-10.041,0
	c0-3.361,0-6.417,0-9.45c-6.801,0-13.063,0-19.511,0c0,3.295,0,6.345,0,9.921c3.344,0,6.402,0,9.976,0c0,3.59,0,6.648,0,10.039
	c3.469,0,6.406,0,9.861,0c0,3.401,0,6.472,0,9.872c3.664,0,6.805,0,9.945,0l-0.141-0.141c0,3.251,0,6.501,0,10.236
	c-6.934,0-13.312,0-20,0c0,3.639,0,6.771,0,9.904l0.139-0.148c-3.135,0-6.271,0-9.91,0c0-9.891,0-19.601,0-29.813
	c-10.193,0-19.897,0-29.92,0c-0.156-3.543-0.292-6.608-0.441-9.992c-6.533,0-12.792,0-19.576,0c0-3.376,0-6.433,0-10.206
	c-3.763,0-7.021,0-10.28,0l0.144,0.143c0-3.138,0-6.274,0-9.938c-6.751,0-13.145,0-19.804,0c0-3.446,0-6.382,0-9.849
	c2.917,0,5.975,0,9.563,0c0-3.571,0-6.63,0-9.974c3.576,0,6.627,0,10.035,0c0,3.111,0,6.054,0,9.52c3.391,0,6.452,0,10.037,0
	c0,3.574,0,6.634,0,10.037c3.455,0,6.393,0,9.857,0c0,3.39,0,6.449,0,10.068c7.104,0,13.693,0,20.282,0c0,3.248,0,6.495,0,9.757
	c3.581,0,6.618,0,9.591,0c0-3.378,0-6.415,0-9.616C65.944,229.789,62.818,229.789,59.692,229.789z"/>
<path fill-rule="evenodd" clip-rule="evenodd"  d="M289.71,239.652c0,3.141,0,6.282,0,9.951c3.4,0,6.461,0,9.791,0
	c0,3.452,0,6.39,0,9.863c-2.925,0-5.985,0-9.577,0c0,10.233,0,19.957,0,30.195c-16.896,0-33.273,0-49.999,0c0,3.444,0,6.386,0,9.854
	c-3.396,0-6.457,0-10.047,0c0,3.577,0,6.638,0,9.95c-3.457,0-6.395,0-9.868,0c0-2.967,0-6.031,0-9.814c-3.769,0-7.034,0-10.3,0
	l0.139,0.148c0-3.262,0-6.522,0-10.287c3.628,0,6.689,0,10.076,0c0-3.465,0-6.406,0-9.856c3.396,0,6.452,0,10.018,0
	c0-6.91,0-13.303,0-20.193c3.584,0,6.643,0,9.566,0c0-3.465,0-6.401,0-9.852c-3.313,0-6.381,0-9.348,0c0-3.583,0-6.628,0-9.812
	c20.15,0,39.918,0,59.688,0L289.71,239.652z M279.581,250.105c-10.179,0-19.887,0-29.561,0c0,9.968,0,19.556,0,29.338
	c9.952,0,19.658,0,29.561,0C279.581,269.568,279.581,259.98,279.581,250.105z"/>
<path fill-rule="evenodd" clip-rule="evenodd"  d="M0,69.372C0,46.104,0,23.186,0,0c23.136,0,46.056,0,69.376,0
	c0,22.938,0,45.977,0,69.372C46.479,69.372,23.442,69.372,0,69.372z M59.429,59.508c0-16.766,0-33.139,0-49.384
	c-16.729,0-33.104,0-49.389,0c0,16.652,0,32.908,0,49.384C26.556,59.508,42.812,59.508,59.429,59.508z"/>
<path fill-rule="evenodd" clip-rule="evenodd"  d="M329.559,0.091c0,23.261,0,46.18,0,69.368
	c-23.134,0-46.053,0-69.376,0c0-22.932,0-45.97,0-69.368C283.072,0.091,306.109,0.091,329.559,0.091z M269.998,59.378
	c16.774,0,33.147,0,49.384,0c0-16.731,0-33.105,0-49.384c-16.655,0-32.91,0-49.384,0C269.998,26.514,269.998,42.769,269.998,59.378z
	"/>
<path fill-rule="evenodd" clip-rule="evenodd"  d="M0.007,329.379c0-23.288,0-46.207,0-69.386
	c23.144,0,46.063,0,69.377,0c0,22.959,0,45.997,0,69.386C46.466,329.379,23.429,329.379,0.007,329.379z M10.133,269.948
	c0,16.781,0,33.154,0,49.384c16.733,0,33.108,0,49.379,0c0-16.658,0-32.913,0-49.384C42.99,269.948,26.735,269.948,10.133,269.948z"
	/>
<path fill-rule="evenodd" clip-rule="evenodd"  d="M239.7,79.662c0,6.471,0,12.94,0,20.146c3.621,0,6.884,0,10.146,0
	l-0.139-0.148c0,3.263,0,6.524,0,10.299c-6.989,0-13.393,0-19.661,0c0,3.482,0,6.422,0,9.884c9.987,0,19.718,0,29.339,0
	c0,3.597,0,6.646,0,10.052c-6.657,0-12.928,0-19.721,0c0,3.423,0,6.484,0,9.912c-3.672,0-6.813,0-9.953,0c0-3.254,0-6.509,0-9.723
	c-6.943,0-13.313,0-19.867,0c0,6.81,0,13.267,0,19.723c-13.244,0-26.49,0-39.697,0c0-3.751,0-6.796,0-10.358
	c10.073,0,19.787,0,29.353,0c0-3.473,0-6.407,0-9.861c-3.327,0-6.388,0-9.651,0c0-6.997,0-13.462,0-19.927l-0.141,0.141
	c6.562,0,13.123,0,20.186,0c0-3.665,0-6.709,0-10.248c3.553,0,6.6,0,9.974,0c0-3.631,0-6.756,0-9.882l-0.144,0.144
	c3.25,0,6.5,0,10.234,0c0-3.743,0-6.799,0-10.014c3.635,0,6.763,0,9.891,0L239.7,79.662z"/>
<path fill-rule="evenodd" clip-rule="evenodd"  d="M199.7,319.662c0,3.142,0,6.282,0,9.744
	c-9.934,0-19.652,0-29.742,0c0-6.358,0-12.628,0-19.44c-6.73,0-13.127,0-20.102,0c0-3.781,0-7.042,0-10.304l-0.148,0.139
	c3.265,0,6.529,0,10.004,0c0-7.202,0-13.675,0-20.146c3.248,0,6.497,0,10.236,0c0-6.91,0-13.28,0-20.14c6.873,0,13.242,0,19.754,0
	c0-6.957,0-13.404,0-19.852c3.385,0,6.768,0,10.152,0c0,6.591,0,13.181,0,19.699c3.619,0,6.672,0,10.065,0c0-3.307,0-6.243,0-9.325
	c3.405,0,6.452,0,9.5,0c0,6.688,0,13.064,0,19.962c-6.737,0-13.126,0-19.84,0c0,3.473,0,6.415,0,9.858c-3.409,0-6.469,0-9.726,0
	c0,3.664,0,6.802,0,9.939c-6.599,0-13.197,0-19.695,0c0,3.648,0,6.704,0,10.108c3.322,0,6.26,0,9.73,0c0,6.743,0,13.137,0,19.896
	c7.016,0,13.486,0,19.959,0L199.7,319.662z"/>
<path fill-rule="evenodd" clip-rule="evenodd"  d="M59.856,209.799c0-3.137,0-6.272,0-9.93c6.574,0,12.963,0,19.631,0
	c0-3.562,0-6.605,0-9.897c-9.76,0-19.342,0-29.456,0c0,2.982,0,6.034,0,9.422c-6.899,0-13.275,0-20.175,0c0-13.27,0-26.5,0-39.731
	l-0.148,0.139c3.262,0,6.524,0,10.297,0c0,6.988,0,13.389,0,19.663c3.481,0,6.421,0,9.891,0c0-6.65,0-13.042,0-19.645
	c10.342,0,20.143,0,29.942,0l-0.144-0.143c0,3.255,0,6.51,0,10.262c-6.959,0-13.35,0-19.674,0c0,3.461,0,6.395,0,9.832
	c9.943,0,19.654,0,29.879,0c0,3.563,0,6.619,0,10.186c3.578,0,6.641,0,9.627,0c0,3.466,0,6.398,0,9.847c-3.298,0-6.355,0-9.93,0
	c0,3.573,0,6.629,0,9.857c-10.316,0-20.103,0-29.889,0L59.856,209.799z"/>
<path fill-rule="evenodd" clip-rule="evenodd"  d="M149.856,299.662c-3.135,0-6.27,0-9.893,0
	c0,10.006,0,19.706,0,29.731c-10.171,0-19.857,0-30.107,0c0-3.229,0-6.48,0-9.731l-0.148,0.139c3.264,0,6.527,0,10.141,0
	c0-7.198,0-13.669,0-20.141l-0.141,0.141c3.253,0,6.506,0,9.734,0c0-7.076,0-13.446,0-20.141c-3.469,0-6.602,0-9.734,0l0.141,0.141
	c0-6.598,0-13.195,0-20.141c-3.856,0-6.998,0-10.141,0l0.141,0.141c0-3.266,0-6.53,0-10.305c3.645,0,6.71,0,10.107,0
	c0-3.473,0-6.409,0-9.441c6.752,0,13.141,0,19.898,0c0,3.458,0,6.601,0,9.743c-3.252,0-6.505,0-9.739,0c0,6.938,0,13.31,0,19.866
	c3.472,0,6.605,0,9.739,0c0,6.574,0,13.149,0,20.228c3.56,0,6.62,0,9.854,0c0,3.646,0,6.777,0,9.909L149.856,299.662z"/>
<path fill-rule="evenodd" clip-rule="evenodd"  d="M9.856,139.799c0-6.47,0-12.939,0-19.946c3.281,0,6.338,0,9.656,0
	c0-3.464,0-6.404,0-9.879c-2.947,0-6.01,0-9.646,0c0-7.111,0-13.707,0-20.303l-0.144,0.144c3.375-0.002,6.748-0.004,10.123-0.006
	l-0.139-0.148c0,3.269,0,6.536,0,10.141c3.858,0,6.999,0,10.141,0L29.7,99.662c0,6.443,0,12.887,0,19.699c3.34,0,6.378,0,9.939,0
	c0-2.96,0-6.007,0-9.553c7.07,0,13.639,0,20.207,0l-0.139-0.148c0,3.27,0,6.538,0,10.003c3.861,0,7.004,0,10.146,0
	c-0.049,3.38-0.098,6.759-0.146,10.138l0.141-0.141c-6.599,0-13.197,0-20.004,0c0,3.858,0,7.003,0,10.146c-3.251,0-6.502,0-10.242,0
	c0,3.581,0,6.629,0,9.854c-3.638,0-6.766,0-9.895,0l0.141,0.141c0-6.563,0-13.125,0-19.76c-3.676,0-6.714,0-10.254,0
	c0,3.356,0,6.402,0,9.619c-3.635,0-6.761,0-9.887,0L9.856,139.799z"/>
<path fill-rule="evenodd" clip-rule="evenodd"  d="M209.71,29.809c3.139,0,6.278,0,9.946,0c0,3.266,0,6.327,0,9.652
	c3.455,0,6.396,0,9.86,0c0-12.924,0-25.971,0-39.372c6.895,0,13.273,0,19.959,0c0,3.058,0,6.105,0,9.515c-3.1,0-6.038,0-9.338,0
	c0,3.396,0,6.45,0,10.045c3.017,0,6.086,0,9.383,0c0,10.12,0,19.712,0,29.845c-2.984,0-6.039,0-9.82,0c0,3.775,0,7.04,0,10.306
	l0.148-0.139c-3.379,0.049-6.758,0.098-10.137,0.146c0-3.253,0-6.505,0-9.733c-3.602,0-6.645,0-9.867,0c0,3.473,0,6.604,0,9.733
	c-3.377,0-6.756,0-10.133,0c0.045-10.049,0.091-20.098,0.137-30.146L209.71,29.809z"/>
<path fill-rule="evenodd" clip-rule="evenodd"  d="M249.847,99.809c0-3.137,0-6.274,0-9.932c3.253,0,6.31,0,9.886,0
	c0-3.567,0-6.624,0-9.907c3.451,0,6.385,0,9.844,0c0,6.344,0,12.731,0,19.436c6.885,0,13.257,0,20.158,0c0-6.438,0-12.825,0-19.433
	c3.448,0,6.379,0,9.839,0c0,3.017,0,6.079,0,9.826c3.759,0,7.021,0,10.283,0l-0.148-0.139c0,3.38,0,6.761,0,10.141l0.141-0.141
	c-3.265,0-6.529,0-10.141,0c0,10.534,0,20.337,0,30.141l0.141-0.141c-3.259,0-6.518,0-10.276,0c0-6.969,0-13.363,0-19.687
	c-3.469,0-6.406,0-9.861,0c0,3.286,0,6.355,0,9.403c-3.592,0-6.641,0-10.21,0c0-3.405,0-6.461,0-9.85c-3.468,0-6.402,0-9.854,0
	c0-3.409,0-6.468,0-9.867c-3.663,0-6.801,0-9.939,0L249.847,99.809z"/>
<path fill-rule="evenodd" clip-rule="evenodd"  d="M159.856,39.662c-3.137,0-6.273,0-9.934,0c0-3.249,0-6.315,0-9.885
	c-6.894,0-13.282,0-19.898,0c0-3.444,0-6.375,0-9.834c3.008,0,6.07,0,9.646,0c0-6.894,0-13.277,0-19.931c10.222,0,19.921,0,29.974,0
	c0,3.119,0,6.052,0,9.512c3.386,0,6.443,0,10.066,0c0,3.763,0,7.023,0,10.284l0.139-0.148c-6.709,0.051-13.417,0.102-20.125,0.152
	c-0.001-3.248-0.001-6.496-0.001-9.757c-3.581,0-6.618,0-9.591,0c0,3.378,0,6.415,0,9.615c3.48,0,6.607,0,9.732,0
	c-0.052,6.71-0.104,13.42-0.156,20.13L159.856,39.662z"/>
<path fill-rule="evenodd" clip-rule="evenodd"  d="M329.554,279.545c0,6.962,0,13.216,0,20.003
	c-6.399,0-12.782,0-19.685,0c0,3.567,0,6.621,0,9.923c-3.454,0-6.39,0-9.709,0c0-12.941,0-25.973,0-39.372
	c6.223,0,12.596,0,19.505,0c0,3.002,0,6.055,0,9.446C323.12,279.545,326.056,279.545,329.554,279.545z"/>
<path fill-rule="evenodd" clip-rule="evenodd"  d="M29.856,159.662c-3.137,0-6.274,0-9.918,0
	c0,10.027,0,19.738,0,29.753c-3.543,0-6.586,0-9.988,0c0-6.367,0-12.626,0-19.412c-3.378,0-6.43,0-9.825,0
	c0-10.223,0-19.924,0-30.204c3.222,0,6.476,0,9.731,0l-0.148-0.139c0,3.264,0,6.528,0,10.141c7.198,0,13.67,0,20.141,0l-0.141-0.141
	c0,3.38,0,6.761,0,10.141L29.856,159.662z"/>
<path fill-rule="evenodd" clip-rule="evenodd"  d="M280.014,309.45c-3.144,0.146-6.287,0.293-9.956,0.464
	c0,6.324,0,12.709,0,19.45c-6.887,0-13.258,0-20.166,0c0-3.005,0-6.057,0-9.451c-3.445,0-6.385,0-9.717,0c0-3.387,0-6.437,0-10.019
	c6.229,0,12.617,0,19.523,0c0-3.554,0-6.617,0-9.897c6.909,0,13.287,0,20.181,0c0,3.375,0,6.491-0.005,9.613
	C279.868,309.616,280.014,309.45,280.014,309.45z"/>
<path fill-rule="evenodd" clip-rule="evenodd"  d="M69.856,99.799c0-3.132,0-6.264,0-9.896
	c-6.689,0-13.064,0-19.754,0c0-3.532,0-6.57,0-10.084c9.958,0,19.846,0,29.734,0l-0.143-0.144c0,3.139,0,6.277,0,10.144
	c6.959,0,13.551,0,20.144,0l-0.144-0.144c0.006,3.378,0.011,6.756,0.016,10.133l0.139-0.148c-10.047,0-20.094,0-30.141,0
	L69.856,99.799z"/>
<path fill-rule="evenodd" clip-rule="evenodd"  d="M329.423,249.54c-3.206,0-6.136,0-9.586,0
	c0-6.555,0-12.941,0-19.663c-3.441,0-6.373,0-9.681,0c0-3.387,0-6.435,0-10.019c2.961,0,6.026,0,9.424,0c0-3.437,0-6.374,0-9.718
	c3.387,0,6.434,0,9.843,0C329.423,222.987,329.423,236.013,329.423,249.54z"/>
<path fill-rule="evenodd" clip-rule="evenodd"  d="M119.847,59.652c-3.127,0-6.253,0-9.885,0c0,3.358,0,6.403,0,9.761
	c-3.538,0-6.576,0-10.105,0c0-6.629,0-13.19,0-19.751l-0.148,0.139c3.269,0,6.536,0,10.141,0c0-3.855,0-6.998,0-10.141l-0.139,0.148
	c6.47,0,12.939,0,20,0c0,3.475,0,6.737,0,10l0.139-0.148c-3.269,0-6.536,0-10.141,0c0,3.855,0,6.998,0,10.141L119.847,59.652z"/>
<path fill-rule="evenodd" clip-rule="evenodd"  d="M89.856,289.799c-0.004-3.383-0.007-6.765-0.01-10.146
	l-0.139,0.148c10.047,0,20.094,0,30.141,0l-0.141-0.141c0,6.714,0,13.427,0,20.141l0.141-0.141c-3.256,0-6.511,0-10.267,0
	c0-3.603,0-6.651,0-10c-6.974,0-13.424,0-19.874,0L89.856,289.799z"/>
<path fill-rule="evenodd" clip-rule="evenodd"  d="M190.027,9.445c0-3.108,0-6.042,0-9.346c9.655,0,19.362,0,29.411,0
	c0,2.966,0,6.009,0,9.346C209.685,9.445,199.979,9.445,190.027,9.445z"/>
<path fill-rule="evenodd" clip-rule="evenodd"  d="M319.832,189.646c-6.418,0-12.836,0-19.829,0
	c0-3.457,0-6.82,0.006-10.19c0.005-0.006-0.141,0.16-0.135,0.154c3.131-0.006,6.256-0.006,9.728-0.006c0-3.215,0-6.155,0-9.483
	c3.396,0,6.447,0,10.088,0c0,6.479,0,13.074,0,19.669L319.832,189.646z"/>
<path fill-rule="evenodd" clip-rule="evenodd"  d="M19.847,89.809c0-3.13,0-6.26,0-9.732c6.535,0,12.898,0,19.598,0
	c0,6.315,0,12.673,0,19.586c-3.248,0-6.496,0-9.744,0l0.148,0.139c0-3.269,0-6.536,0-10.141c-3.855,0-6.998,0-10.141,0
	L19.847,89.809z"/>
<path fill-rule="evenodd" clip-rule="evenodd"  d="M99.847,309.652c-6.453,0-12.907,0-19.713,0
	c0-6.547,0-12.913,0-19.854c3.217,0,6.47,0,9.723,0l-0.148-0.139c0,3.253,0,6.506,0,10.245c3.727,0,6.775,0,10,0
	c0,3.64,0,6.768,0,9.896L99.847,309.652z"/>
<path fill-rule="evenodd" clip-rule="evenodd"  d="M119.689,0.039c0,3.273,0,6.088,0,9.296
	c-6.433,0-12.807,0-19.548,0c0-2.895,0-5.938,0-9.296C106.487,0.039,112.86,0.039,119.689,0.039z"/>
<path fill-rule="evenodd" clip-rule="evenodd"  d="M89.833,19.646c-3.127,0-6.252,0-9.715,0c0-6.53,0-12.891,0-19.585
	c3.003,0,6.039,0,9.571,0c0,6.601,0,13.164,0,19.729L89.833,19.646z"/>
<path fill-rule="evenodd" clip-rule="evenodd"  d="M79.837,79.819c0-6.446,0-12.893,0-19.712c3.2,0,6.238,0,9.612,0
	c0,6.273,0,12.637,0,19.568c-3.255,0-6.505,0-9.755,0L79.837,79.819z"/>
<path fill-rule="evenodd" clip-rule="evenodd"  d="M289.724,319.814c6.438,0,12.877,0,19.684,0
	c0,3.181,0,6.215,0,9.589c-6.278,0-12.637,0-19.54,0c0-3.243,0-6.487,0-9.732L289.724,319.814z"/>
<path fill-rule="evenodd" clip-rule="evenodd"  d="M239.7,59.799c3.134,0,6.268,0,9.737,0c0,6.556,0,12.925,0,19.863
	c-3.233,0-6.485,0-9.737,0l0.148,0.139c0-6.714,0-13.427,0-20.141L239.7,59.799z"/>
<path fill-rule="evenodd" clip-rule="evenodd"  d="M209.71,299.652c-0.006,6.712-0.014,13.425-0.021,20.138
	l0.144-0.144c-3.378,0.006-6.756,0.011-10.133,0.016l0.148,0.139c-0.046-6.716-0.092-13.432-0.137-20.146
	c3.379,0.049,6.758,0.098,10.137,0.146L209.71,299.652z"/>
<path fill-rule="evenodd" clip-rule="evenodd"  d="M99.498,319.494c0,3.254,0,6.508,0,9.994
	c-6.439,0-12.677,0-19.317,0c0-2.967,0-6.004,0-9.859c6.371,0,12.921,0,19.477,0.006C99.663,319.64,99.498,319.494,99.498,319.494z"
	/>
<path fill-rule="evenodd" clip-rule="evenodd"  d="M99.856,49.662c-3.141,0-6.282,0-10,0c0-3.47,0-6.735,0-10
	l-0.148,0.139c3.381,0,6.76,0,10.141,0l-0.141-0.141c0,3.38,0,6.761,0,10.141L99.856,49.662z"/>
<path fill-rule="evenodd" clip-rule="evenodd"  d="M319.689,189.79c3.125,0,6.249,0,9.729,0c0,3.199,0,6.235,0,9.611
	c-2.967,0-6.002,0-9.586,0c0-3.261,0-6.508,0-9.754C319.832,189.646,319.689,189.79,319.689,189.79z"/>
<path fill-rule="evenodd" clip-rule="evenodd"  d="M59.856,219.662c-3.129,0-6.258,0-9.73,0c0-3.223,0-6.264,0-9.863
	c3.227,0,6.479,0,9.73,0l-0.148-0.139c0,3.38,0,6.761,0,10.141L59.856,219.662z"/>
<path fill-rule="evenodd" clip-rule="evenodd"  d="M59.847,109.809c0-3.143,0-6.284,0-10.01c3.475,0,6.742,0,10.01,0
	l-0.148-0.139c0.049,3.379,0.098,6.759,0.146,10.138c-3.382-0.046-6.764-0.092-10.146-0.138L59.847,109.809z"/>
<path fill-rule="evenodd" clip-rule="evenodd"  d="M19.719,229.642c0,3.143,0,6.285,0,10c-3.473,0-6.736,0-10,0
	l0.144,0.143c0-3.138,0-6.275,0-9.999c3.467,0,6.732,0,9.999,0C19.862,229.784,19.719,229.642,19.719,229.642z"/>
<path fill-rule="evenodd" clip-rule="evenodd"  d="M9.719,239.642c0,3.125,0,6.249,0,9.729c-3.201,0-6.238,0-9.611,0
	c0-2.968,0-6.004,0-9.586c3.261,0,6.507,0,9.754,0C9.862,239.784,9.719,239.642,9.719,239.642z"/>
<path fill-rule="evenodd" clip-rule="evenodd"  d="M89.689,19.79c3.145,0,6.288,0,10.011,0c0,3.477,0,6.742,0,10.009
	l0.148-0.139c-3.381,0-6.76,0-10.141,0l0.148,0.139c-0.008-3.384-0.016-6.768-0.023-10.151C89.833,19.646,89.689,19.79,89.689,19.79
	z"/>
<path fill-rule="evenodd" clip-rule="evenodd"  d="M199.847,29.809c0-3.129,0-6.259,0-9.731c3.224,0,6.266,0,9.863,0
	c0,3.229,0,6.479,0,9.731l0.139-0.148c-3.381,0-6.76,0-10.141,0L199.847,29.809z"/>
<path fill-rule="evenodd" clip-rule="evenodd"  d="M99.838,89.819c0-3.125,0-6.249,0-9.729c3.201,0,6.239,0,9.611,0
	c0,2.966,0,6.002,0,9.586c-3.261,0-6.508,0-9.755,0L99.838,89.819z"/>
<path fill-rule="evenodd" clip-rule="evenodd"  d="M89.856,39.662c-3.129,0-6.258,0-9.73,0c0-3.224,0-6.266,0-9.863
	c3.227,0,6.479,0,9.73,0l-0.148-0.139c0,3.38,0,6.761,0,10.141L89.856,39.662z"/>
<path fill-rule="evenodd" clip-rule="evenodd"  d="M9.867,89.671c-3.126,0-6.251,0-9.729,0c0-3.201,0-6.238,0-9.611
	c2.968,0,6.004,0,9.586,0c0,3.262,0,6.508,0,9.754C9.724,89.814,9.867,89.671,9.867,89.671z"/>
<path fill-rule="evenodd" clip-rule="evenodd"  d="M99.7,29.799c3.143,0,6.286,0,10.01,0c0,3.476,0,6.742,0,10.01
	l0.139-0.148c-3.381,0-6.76,0-10.141,0l0.141,0.141c0-3.38,0-6.761,0-10.141L99.7,29.799z"/>
<path fill-rule="evenodd" clip-rule="evenodd"  d="M109.856,319.662c-3.449-0.052-6.897-0.104-10.353-0.162
	c-0.006-0.006,0.159,0.14,0.153,0.135c0.06-3.331,0.125-6.657,0.189-9.982l-0.139,0.148c3.266,0,6.529,0,10,0c0,3.721,0,6.86,0,10
	L109.856,319.662z"/>
<path fill-rule="evenodd" clip-rule="evenodd"  d="M289.867,319.671c-3.111,0-6.223,0-9.864,0
	c0-3.485,0-6.847,0.006-10.214c0.005-0.007-0.141,0.159-0.135,0.153c3.11-0.006,6.216-0.006,9.85-0.006c0,3.716,0,6.963,0,10.209
	C289.724,319.814,289.867,319.671,289.867,319.671z"/>
<path fill-rule="evenodd" clip-rule="evenodd"  d="M320.052,309.961c3.146,0,6.074,0,9.364,0c0,3.038,0,6.082,0,9.451
	c-2.997,0-6.041,0-9.364,0C320.052,316.404,320.052,313.475,320.052,309.961z"/>
<path fill-rule="evenodd" clip-rule="evenodd"  d="M129.71,59.652c0,3.13,0,6.26,0,9.731c-3.224,0-6.266,0-9.863,0
	c0-3.229,0-6.479,0-9.731l-0.139,0.148c3.381,0,6.76,0,10.141,0L129.71,59.652z"/>
<path fill-rule="evenodd" clip-rule="evenodd"  d="M209.689,319.79c3.125,0,6.249,0,9.729,0c0,3.201,0,6.238,0,9.611
	c-2.967,0-6.002,0-9.586,0c0-3.262,0-6.508,0-9.755L209.689,319.79z"/>
<path fill-rule="evenodd" clip-rule="evenodd"  d="M129.848,209.8c-6.713,0-13.426,0-20.139,0
	c0-9.767,0-19.533,0-29.683c3.31,0,6.345,0,9.915,0c0,2.928,0,5.986,0,9.544c7.077,0,13.65,0,20.224,0c0,3.129,0,6.258,0,9.895
	c-3.368,0-6.418,0-10,0C129.848,203.299,129.848,206.55,129.848,209.8z"/>
<path fill-rule="evenodd" clip-rule="evenodd"  d="M79.838,159.819c0-3.142,0-6.282,0-9.753c9.919,0,19.628,0,29.64,0
	c0,6.417,0,12.793,0,19.417c-3.098,0-6.03,0-9.494,0c0-3.015,0-6.074,0-9.808c-7.105,0-13.697,0-20.288,0
	C79.694,159.677,79.838,159.819,79.838,159.819z"/>
<path fill-rule="evenodd" clip-rule="evenodd"  d="M129.709,149.661c3.38,0,6.759,0,10.139,0
	c0,3.141,0,6.281,0,10.147c3.464,0,6.731,0,9.999,0l-0.139-0.148c0,3.38,0,6.761,0,10.141l0.139-0.148c-9.761,0-19.521,0-29.674,0
	c0-3.146,0-6.182,0-9.743c2.9,0,5.948,0,9.536,0C129.709,156.166,129.709,152.913,129.709,149.661z"/>
<path fill-rule="evenodd" clip-rule="evenodd"  d="M159.7,169.662c0,6.469,0,12.937,0,20.138
	c-6.811,0-13.4,0-19.991,0c0-3.129,0-6.257,0-9.897c3.368,0,6.417,0,10.138,0c0-3.742,0-6.996,0-10.25l-0.139,0.148
	c3.381,0,6.76,0,10.141,0L159.7,169.662z"/>
<path fill-rule="evenodd" clip-rule="evenodd"  d="M49.709,139.661c6.713,0,13.426,0,20.139,0
	c0,3.133,0,6.265,0,9.729c-6.694,0-13.062,0-20.139,0C49.709,146.165,49.709,142.913,49.709,139.661z"/>
<path fill-rule="evenodd" clip-rule="evenodd"  d="M209.709,149.661c3.128,0,6.256,0,9.896,0c0-3.22,0-6.269,0-10
	c3.74,0,6.992,0,10.243,0c0,3.142,0,6.283,0,9.955c3.275,0,6.339,0,9.661,0c0,3.459,0,6.399,0,9.876c-2.953,0-6.016,0-9.661,0
	c0,3.776,0,7.042,0,10.308c-6.438,0-12.876,0-19.691,0c0,3.171,0,6.204,0,9.765c2.923,0,5.969,0,9.544,0c0,3.739,0,6.986,0,10.234
	l0.148-0.139c-6.714,0-13.427,0-20.141,0l0.148,0.139c0-9.777,0-19.555,0-29.859c3.193,0,6.25,0,9.853,0
	C209.709,156.177,209.709,152.919,209.709,149.661z"/>
<path fill-rule="evenodd" clip-rule="evenodd"  d="M129.709,219.8c0-3.38,0-6.759,0-10.139c6.454,0,12.907,0,19.887,0
	c0-3.221,0-6.278,0-9.853c7.092,0,13.671,0,20.251,0l-0.139-0.148c0.049,6.713,0.098,13.425,0.146,20.138c-3.264,0-6.527,0-10.146,0
	c0,7.06,0,13.531,0,20.003l0.139-0.148c-3.141,0-6.282,0-9.954,0c0-3.273,0-6.336,0-9.749c-3.462,0-6.401,0-9.876,0
	c0-3.396,0-6.458,0-10.104C136.239,219.8,132.975,219.8,129.709,219.8z"/>
<path fill-rule="evenodd" clip-rule="evenodd"  d="M169.847,199.809c0-3.136,0-6.272,0-9.931c3.252,0,6.309,0,9.885,0
	c0-3.563,0-6.631,0-9.907c3.449,0,6.381,0,9.842,0c0,3.02,0,6.081,0,9.828c3.76,0,7.021,0,10.283,0l-0.148-0.139
	c0,3.263,0,6.524,0,10c-10.396,0-20.198,0-30,0L169.847,199.809z"/>
<path fill-rule="evenodd" clip-rule="evenodd"  d="M159.71,159.809c3.128,0,6.256,0,9.724,0c0,3.218,0,6.26,0,9.854
	c-3.231,0-6.482,0-9.733,0l0.148,0.139c0-3.38,0-6.761,0-10.141L159.71,159.809z"/>
<path fill-rule="evenodd" clip-rule="evenodd"  d="M179.985,169.369c0-3.244,0-6.172,0-9.365c3.12,0,6.049,0,9.387,0
	c0,2.909,0,5.948,0,9.365C186.509,169.369,183.465,169.369,179.985,169.369z"/>
<path fill-rule="evenodd" clip-rule="evenodd"  d="M149.847,159.809c-0.046-3.383-0.092-6.765-0.138-10.147
	c3.142,0,6.284,0,10.001,0c0,3.614,0,6.881,0,10.147l0.139-0.148c-3.381,0-6.76,0-10.141,0L149.847,159.809z"/>
<path fill-rule="evenodd" clip-rule="evenodd"  d="M219.867,89.671c-3.124,0-6.249,0-9.729,0c0-3.201,0-6.238,0-9.611
	c2.968,0,6.004,0,9.586,0c0,3.261,0,6.508,0,9.754C219.724,89.814,219.867,89.671,219.867,89.671z"/>
<path fill-rule="evenodd" clip-rule="evenodd"  d="M189.709,69.661c3.38,0,6.759,0,10.139,0c0,3.128,0,6.256,0,9.724
	c-3.36,0-6.401,0-10.139,0C189.709,76.163,189.709,72.912,189.709,69.661z"/>
<path fill-rule="evenodd" clip-rule="evenodd"  d="M219.709,59.661c3.38,0,6.759,0,10.139,0c0,3.127,0,6.255,0,9.724
	c-3.36,0-6.401,0-10.139,0C219.709,66.164,219.709,62.912,219.709,59.661z"/>
<path fill-rule="evenodd" clip-rule="evenodd"  d="M199.709,69.8c0-3.14,0-6.279,0-10.139c3.606,0,6.872,0,10.139,0
	c0,3.14,0,6.279,0,10.139C206.241,69.8,202.976,69.8,199.709,69.8z"/>
<path fill-rule="evenodd" clip-rule="evenodd"  d="M179.709,69.8c0-3.38,0-6.759,0-10.139c3.141,0,6.282,0,10.139,0
	c0,3.605,0,6.872,0,10.139C186.468,69.8,183.089,69.8,179.709,69.8z"/>
<path fill-rule="evenodd" clip-rule="evenodd"  d="M69.709,119.8c0-3.38,0-6.759,0-10.139c3.141,0,6.282,0,10.139,0
	c0,3.605,0,6.872,0,10.139C76.468,119.8,73.089,119.8,69.709,119.8z"/>
<path fill-rule="evenodd" clip-rule="evenodd"  d="M199.709,239.8c0-3.141,0-6.281,0-10.147c-3.464,0-6.731,0-9.999,0
	l0.139,0.148c0-3.266,0-6.531,0-10.307c3.65,0,6.712,0,10.11,0c0-3.475,0-6.415,0-9.879c6.742,0,13.134,0,19.89,0
	c0-7.013,0-13.483,0-19.955l-0.148,0.139c6.716-0.046,13.432-0.092,20.147-0.138c0,6.449,0,12.899,0,19.872c-3.354,0-6.403,0-10,0
	c0,3.756,0,7.012,0,10.267c-6.454,0-12.907,0-19.882,0c0,6.544,0,12.922,0,20C206.216,239.8,202.963,239.8,199.709,239.8z"/>
<path fill-rule="evenodd" clip-rule="evenodd"  d="M229.709,219.661c6.47,0,12.94,0,19.954,0
	c0-6.616,0-13.008,0-19.659c3.467,0,6.403,0,9.878,0c0,2.953,0,6.015,0,9.659c3.775,0,7.041,0,10.307,0c0,6.459,0,12.919,0,19.721
	c-13.369,0-26.392,0-40.139,0C229.709,226.176,229.709,222.918,229.709,219.661z"/>
<path fill-rule="evenodd" clip-rule="evenodd"  d="M199.848,299.8c-3.14,0-6.279,0-10.139,0c0-3.605,0-6.872,0-10.139
	c3.14,0,6.279,0,10.139,0C199.848,293.267,199.848,296.533,199.848,299.8z"/>
<path fill-rule="evenodd" clip-rule="evenodd"  d="M279.867,139.671c-3.125,0-6.249,0-9.729,0
	c0-3.199,0-6.235,0-9.611c2.967,0,6.002,0,9.586,0c0,3.261,0,6.508,0,9.754C279.725,139.814,279.867,139.671,279.867,139.671z"/>
<path fill-rule="evenodd" clip-rule="evenodd"  d="M139.709,269.8c0-6.713,0-13.426,0-20.139
	c6.713,0,13.426,0,20.139,0c0,3.129,0,6.258,0,9.895c-3.365,0-6.413,0-10,0c0,3.744,0,6.994,0,10.244
	C146.468,269.8,143.089,269.8,139.709,269.8z"/>
<path fill-rule="evenodd" clip-rule="evenodd"  d="M179.7,239.662c0,3.142,0,6.283,0,10.138c-6.8,0-13.396,0-19.991,0
	c0.046-3.383,0.092-6.765,0.138-10.147l-0.139,0.148c6.714,0,13.427,0,20.141,0L179.7,239.662z"/>
<path fill-rule="evenodd" clip-rule="evenodd"  d="M269.679,260.141c0,3.217,0,6.024,0,9.21c-3.13,0-6.175,0-9.563,0
	c0-2.94,0-5.984,0-9.21C263.319,260.141,266.478,260.141,269.679,260.141z"/>
<path fill-rule="evenodd" clip-rule="evenodd"  d="M49.424,49.505c-9.946,0-19.532,0-29.38,0
	c0-9.804,0-19.391,0-29.376c9.611,0,19.317,0,29.38,0C49.424,29.699,49.424,39.403,49.424,49.505z"/>
<path fill-rule="evenodd" clip-rule="evenodd"  d="M309.56,20.091c0,9.927,0,19.513,0,29.367
	c-9.797,0-19.385,0-29.376,0c0-9.59,0-19.297,0-29.367C289.733,20.091,299.438,20.091,309.56,20.091z"/>
<path fill-rule="evenodd" clip-rule="evenodd"  d="M49.425,309.504c-9.949,0-19.535,0-29.381,0
	c0-9.806,0-19.393,0-29.376c9.613,0,19.319,0,29.381,0C49.425,289.701,49.425,299.406,49.425,309.504z"/>
<path fill-rule="evenodd" clip-rule="evenodd"  d="M189.71,229.652c0.046,3.383,0.092,6.765,0.138,10.147
	c-3.382-0.046-6.765-0.092-10.147-0.138l0.148,0.139c-0.046-3.383-0.092-6.765-0.137-10.146c3.379,0.049,6.758,0.098,10.137,0.146
	L189.71,229.652z"/>
<path fill-rule="evenodd" clip-rule="evenodd"  d="M159.848,279.8c-3.14,0-6.279,0-10.139,0c0-3.605,0-6.872,0-10.139
	c3.14,0,6.279,0,10.139,0C159.848,273.267,159.848,276.533,159.848,279.8z"/>
<path fill-rule="evenodd" clip-rule="evenodd"  d="M179.848,229.8c-3.14,0-6.279,0-10.139,0c0-3.605,0-6.872,0-10.139
	c3.14,0,6.279,0,10.139,0C179.848,223.267,179.848,226.533,179.848,229.8z"/>
</svg>
